<?xml version="1.0" encoding="UTF-8"?>
<svg xmlns="http://www.w3.org/2000/svg" xmlns:xlink="http://www.w3.org/1999/xlink" width="1190.25pt" height="1683.749945pt" viewBox="0 0 1190.25 1683.749945" version="1.2">
<defs>
<clipPath id="clip1">
  <path d="M 60.113281 1 L 1130.136719 1 L 1130.136719 1683.09375 L 60.113281 1683.09375 Z M 60.113281 1 "/>
</clipPath>
</defs>
<g id="surface1">
<g clip-path="url(#clip1)" clip-rule="nonzero">
<path style=" stroke:none;fill-rule:nonzero;fill:rgb(100%,55.288696%,24.708557%);fill-opacity:1;" d="M 287.917969 519.074219 C 287.917969 349.675781 425.707031 211.886719 595.105469 211.886719 C 764.449219 211.886719 902.242188 349.675781 902.242188 519.074219 C 902.242188 688.359375 764.449219 826.15625 595.105469 826.15625 C 425.707031 826.15625 287.917969 688.359375 287.917969 519.074219 Z M 1130.0625 536.121094 C 1130.0625 241.046875 890.128906 1.078125 595.105469 1.078125 C 300.101562 1.078125 60.066406 241.046875 60.066406 536.121094 C 60.066406 797.914062 483.125 1501.476562 595.105469 1683.125 C 707.089844 1501.476562 1130.0625 797.914062 1130.0625 536.121094 "/>
</g>
<path style=" stroke:none;fill-rule:nonzero;fill:rgb(100%,55.288696%,24.708557%);fill-opacity:1;" d="M 838.578125 519.074219 C 838.578125 384.785156 729.34375 275.542969 595.105469 275.542969 C 460.835938 275.542969 351.589844 384.785156 351.589844 519.074219 C 351.589844 653.296875 460.835938 762.550781 595.105469 762.550781 C 729.34375 762.550781 838.578125 653.296875 838.578125 519.074219 "/>
</g>
</svg>
